<?xml version="1.0" standalone="yes"?>
<svg width="556" height="170">
<!-- boxes -->
<path style="fill:#840029; stroke:none;" d="
  M3 3L3 167L78 167L78 3L3 3
  M85 3L85 167L155 167L155 3L85 3
  M163 3L163 167L237 167L237 3L163 3
  M245 3L245 167L314 167L314 3L245 3
  M322 3L322 167L393 167L393 3L322 3
  M402 3L402 167L476 167L476 3L402 3
  M484 3L484 167L553 167L553 3L484 3z"/>
<!-- letters -->
<path style="fill:#ffffff; stroke:none;" d="
  M49 42L49 71C45.8823 68.9632 42.7457 66.9584 39 66.3333C-1.39159 59.5927 11.717 147.209 49 121L49 124L64 124 L64 42L49 42
  M113 42L113 55L127 55L127 42L113 42 
  M272 42L272 55L287 55L287 42L272 42
  M350 42L350 66L342 66L342 76L350 76L350 115C350 126 368 126 374.4 119.5L374 112L364 113L364 76L374 76L374 66L364 66L364 42L350 42
  M512 42L512 124L526 124L526 42L512 42
  M418 78C421.257 78.8887 425.357 81.2535 428.791 80.5887C433.049 79.7645 443.889 68.5602 447.149 79.1049C449.795 87.6657 425.252 89.769 420.61 94.5324C412.496 102.857 413.636 118.875 425.015 123.91C433.122 127.499 442.064 124.171 449 120L448 124L462 124C461.103 112.639 461 101.421 461 90C461 84.6599 462.07 77.9192 459.543 73.0154C450.547 55.5581 425.064 64.801 418 78
  M210 121C210 132.511 200.499 146.904 190 133L177 137C182.018 154.876 212.035 155.102 220.351 139.996C224.304 132.815 223 123.904 223 116L223 67L210 67L210 71C206.89 69.0377 203.661 67.1077 200 66.3804C189.602 64.3148 180.392 72.9662 176.779 82C169.96 99.0438 177.969 125.355 199 124.981C203.403 124.902 206.388 123.321 210 121
  M113 67L113 124L127 124L127 67L113 67
  M272 67L272 124L287 124L287 67L272 67z"/>
<!-- holes in letters -->
<path style="fill:#840029; stroke:none;" d="
  M36.0046 78.8735C22.7483 83.9126 25.6376 118.177 42.956 111.397C52.9462 107.485 49.982 73.5602 36.0046 78.8735
  M197.015 78.7855C183.656 83.2411 186.175 117.766 202.985 111.397C213.887 107.265 211.192 74.0569 197.015 78.7855
  M447 94C442.343 96.6469 436.635 96.806 432.214 99.456C419.741 106.932 439.323 122.114 446.821 108.826C447.992 106.75 447.967 104.31 447.996 102C448.031 99.1725 448.089 96.5956 447 94z"/>
</svg>
